<mxfile host="65bd71144e">
    <diagram name="Page-1" id="QvM_rjvkFbhKRYmAyvqA">
        <mxGraphModel dx="1543" dy="2191" grid="1" gridSize="10" guides="1" tooltips="1" connect="1" arrows="1" fold="1" page="1" pageScale="1" pageWidth="850" pageHeight="1100" background="#ffffff" math="0" shadow="0">
            <root>
                <mxCell id="0"/>
                <mxCell id="1" parent="0"/>
                <mxCell id="102" value="" style="rounded=1;whiteSpace=wrap;html=1;dashed=1;fontSize=14;fillColor=none;strokeColor=#000000;strokeWidth=4;" parent="1" vertex="1">
                    <mxGeometry x="500" y="240" width="210" height="440" as="geometry"/>
                </mxCell>
                <mxCell id="46" value="" style="group" parent="1" vertex="1" connectable="0">
                    <mxGeometry x="350" y="770" width="680" height="60" as="geometry"/>
                </mxCell>
                <mxCell id="47" value="" style="rounded=1;whiteSpace=wrap;html=1;fillColor=none;strokeWidth=3;strokeColor=#000000;" parent="46" vertex="1">
                    <mxGeometry x="-120" width="800" height="60" as="geometry"/>
                </mxCell>
                <mxCell id="48" value="&lt;font color=&quot;#000000&quot; style=&quot;font-size: 18px;&quot;&gt;Authorization/Authentication&lt;br&gt;&lt;span style=&quot;font-weight: normal;&quot;&gt;veda-auth&lt;/span&gt;&lt;/font&gt;" style="text;html=1;strokeColor=none;fillColor=none;align=center;verticalAlign=middle;whiteSpace=wrap;rounded=0;strokeWidth=3;fontSize=14;fontStyle=1" parent="46" vertex="1">
                    <mxGeometry x="-120" y="15" width="789.85" height="30" as="geometry"/>
                </mxCell>
                <mxCell id="54" value="Text" style="text;html=1;strokeColor=none;fillColor=none;align=center;verticalAlign=middle;whiteSpace=wrap;rounded=0;" parent="1" vertex="1">
                    <mxGeometry x="320" y="480" width="60" height="30" as="geometry"/>
                </mxCell>
                <mxCell id="92" value="&lt;font color=&quot;#000000&quot; style=&quot;font-size: 18px;&quot;&gt;Services&lt;/font&gt;" style="text;html=1;strokeColor=none;fillColor=none;align=center;verticalAlign=middle;whiteSpace=wrap;rounded=0;strokeWidth=21;fontSize=18;fontStyle=1" parent="1" vertex="1">
                    <mxGeometry x="520" y="255.78" width="170" height="44.43" as="geometry"/>
                </mxCell>
                <mxCell id="103" value="" style="group" vertex="1" connectable="0" parent="1">
                    <mxGeometry x="20" y="340" width="160" height="240" as="geometry"/>
                </mxCell>
                <mxCell id="104" value="" style="rounded=1;whiteSpace=wrap;html=1;fillColor=none;strokeWidth=3;strokeColor=#000000;" vertex="1" parent="103">
                    <mxGeometry width="160" height="240" as="geometry"/>
                </mxCell>
                <mxCell id="105" value="&lt;font color=&quot;#000000&quot; style=&quot;font-size: 18px;&quot;&gt;Data Store&lt;/font&gt;" style="text;html=1;strokeColor=none;fillColor=none;align=center;verticalAlign=middle;whiteSpace=wrap;rounded=0;strokeWidth=3;fontSize=14;fontStyle=1" vertex="1" parent="103">
                    <mxGeometry x="20" y="10" width="120" height="50" as="geometry"/>
                </mxCell>
                <mxCell id="109" value="&lt;font color=&quot;#000000&quot; style=&quot;font-size: 14px;&quot;&gt;S3&lt;br&gt;NASA DAAC&lt;br&gt;ESRI Layer&lt;br&gt;&lt;/font&gt;" style="text;html=1;strokeColor=none;fillColor=none;align=center;verticalAlign=middle;whiteSpace=wrap;rounded=0;strokeWidth=3;fontSize=14;" vertex="1" parent="103">
                    <mxGeometry x="20" y="80" width="120" height="30" as="geometry"/>
                </mxCell>
                <mxCell id="112" value="" style="rounded=1;whiteSpace=wrap;html=1;fillColor=none;strokeWidth=3;strokeColor=#000000;" vertex="1" parent="1">
                    <mxGeometry x="255" y="398.87" width="170" height="120" as="geometry"/>
                </mxCell>
                <mxCell id="113" value="&lt;font color=&quot;#000000&quot; style=&quot;font-size: 18px;&quot;&gt;Data Ingestion Pipeline&lt;/font&gt;" style="text;html=1;strokeColor=none;fillColor=none;align=center;verticalAlign=middle;whiteSpace=wrap;rounded=0;strokeWidth=3;fontSize=14;fontStyle=1" vertex="1" parent="1">
                    <mxGeometry x="260" y="426.08" width="164.38" height="25" as="geometry"/>
                </mxCell>
                <mxCell id="114" value="&lt;font color=&quot;#000000&quot; style=&quot;font-size: 14px;&quot;&gt;veda-data-airflow&lt;br&gt;&lt;/font&gt;" style="text;html=1;strokeColor=none;fillColor=none;align=center;verticalAlign=middle;whiteSpace=wrap;rounded=0;strokeWidth=3;fontSize=14;" vertex="1" parent="1">
                    <mxGeometry x="260" y="480.83" width="153.75" height="15" as="geometry"/>
                </mxCell>
                <mxCell id="119" value="Text" style="text;html=1;strokeColor=none;fillColor=none;align=center;verticalAlign=middle;whiteSpace=wrap;rounded=0;" vertex="1" parent="1">
                    <mxGeometry x="570" y="412.53" width="60" height="30" as="geometry"/>
                </mxCell>
                <mxCell id="120" value="" style="rounded=1;whiteSpace=wrap;html=1;fillColor=none;strokeWidth=3;strokeColor=#000000;" vertex="1" parent="1">
                    <mxGeometry x="520" y="332.53" width="170" height="87.68" as="geometry"/>
                </mxCell>
                <mxCell id="121" value="&lt;font color=&quot;#000000&quot; style=&quot;font-size: 18px;&quot;&gt;STAC API&lt;/font&gt;" style="text;html=1;strokeColor=none;fillColor=none;align=center;verticalAlign=middle;whiteSpace=wrap;rounded=0;strokeWidth=3;fontSize=14;fontStyle=1" vertex="1" parent="1">
                    <mxGeometry x="535.62" y="350.21" width="138.75" height="25" as="geometry"/>
                </mxCell>
                <mxCell id="122" value="&lt;font color=&quot;#000000&quot; style=&quot;font-size: 14px;&quot;&gt;veda-backend&lt;br&gt;&lt;/font&gt;" style="text;html=1;strokeColor=none;fillColor=none;align=center;verticalAlign=middle;whiteSpace=wrap;rounded=0;strokeWidth=3;fontSize=14;" vertex="1" parent="1">
                    <mxGeometry x="535.62" y="380.21" width="127.5" height="15" as="geometry"/>
                </mxCell>
                <mxCell id="123" value="Text" style="text;html=1;strokeColor=none;fillColor=none;align=center;verticalAlign=middle;whiteSpace=wrap;rounded=0;" vertex="1" parent="1">
                    <mxGeometry x="570" y="530.21" width="60" height="30" as="geometry"/>
                </mxCell>
                <mxCell id="124" value="" style="rounded=1;whiteSpace=wrap;html=1;fillColor=none;strokeWidth=3;strokeColor=#000000;" vertex="1" parent="1">
                    <mxGeometry x="520" y="450.21" width="170" height="87.68" as="geometry"/>
                </mxCell>
                <mxCell id="125" value="&lt;font color=&quot;#000000&quot; style=&quot;font-size: 18px;&quot;&gt;WMTS Tiles API&lt;/font&gt;" style="text;html=1;strokeColor=none;fillColor=none;align=center;verticalAlign=middle;whiteSpace=wrap;rounded=0;strokeWidth=3;fontSize=14;fontStyle=1" vertex="1" parent="1">
                    <mxGeometry x="535.62" y="467.89" width="138.75" height="25" as="geometry"/>
                </mxCell>
                <mxCell id="126" value="&lt;font color=&quot;#000000&quot; style=&quot;font-size: 14px;&quot;&gt;veda-backend&lt;br&gt;&lt;/font&gt;" style="text;html=1;strokeColor=none;fillColor=none;align=center;verticalAlign=middle;whiteSpace=wrap;rounded=0;strokeWidth=3;fontSize=14;" vertex="1" parent="1">
                    <mxGeometry x="535.62" y="497.89" width="127.5" height="15" as="geometry"/>
                </mxCell>
                <mxCell id="127" value="Text" style="text;html=1;strokeColor=none;fillColor=none;align=center;verticalAlign=middle;whiteSpace=wrap;rounded=0;" vertex="1" parent="1">
                    <mxGeometry x="565" y="640.21" width="60" height="30" as="geometry"/>
                </mxCell>
                <mxCell id="128" value="" style="rounded=1;whiteSpace=wrap;html=1;fillColor=none;strokeWidth=3;strokeColor=#000000;" vertex="1" parent="1">
                    <mxGeometry x="519.99" y="572.5300000000001" width="170" height="87.68" as="geometry"/>
                </mxCell>
                <mxCell id="129" value="&lt;font color=&quot;#000000&quot; style=&quot;font-size: 18px;&quot;&gt;OGC Features API&lt;/font&gt;" style="text;html=1;strokeColor=none;fillColor=none;align=center;verticalAlign=middle;whiteSpace=wrap;rounded=0;strokeWidth=3;fontSize=14;fontStyle=1" vertex="1" parent="1">
                    <mxGeometry x="520" y="590.21" width="170" height="25" as="geometry"/>
                </mxCell>
                <mxCell id="130" value="&lt;font color=&quot;#000000&quot; style=&quot;font-size: 14px;&quot;&gt;veda-features-api-cdk&lt;br&gt;&lt;/font&gt;" style="text;html=1;strokeColor=none;fillColor=none;align=center;verticalAlign=middle;whiteSpace=wrap;rounded=0;strokeWidth=3;fontSize=14;" vertex="1" parent="1">
                    <mxGeometry x="535.61" y="620.21" width="144.39" height="15" as="geometry"/>
                </mxCell>
                <mxCell id="131" value="" style="rounded=1;whiteSpace=wrap;html=1;dashed=1;fontSize=14;fillColor=none;strokeColor=#000000;strokeWidth=4;" vertex="1" parent="1">
                    <mxGeometry x="800" y="240" width="210" height="440" as="geometry"/>
                </mxCell>
                <mxCell id="132" value="&lt;font color=&quot;#000000&quot; style=&quot;font-size: 18px;&quot;&gt;Applications&lt;/font&gt;" style="text;html=1;strokeColor=none;fillColor=none;align=center;verticalAlign=middle;whiteSpace=wrap;rounded=0;strokeWidth=21;fontSize=18;fontStyle=1" vertex="1" parent="1">
                    <mxGeometry x="820" y="255.79000000000002" width="170" height="44.43" as="geometry"/>
                </mxCell>
                <mxCell id="136" value="" style="rounded=1;whiteSpace=wrap;html=1;fillColor=none;strokeWidth=3;strokeColor=#000000;" vertex="1" parent="1">
                    <mxGeometry x="825" y="450.00000000000006" width="160" height="87.68" as="geometry"/>
                </mxCell>
                <mxCell id="137" value="&lt;font color=&quot;#000000&quot; style=&quot;font-size: 18px;&quot;&gt;Configuration Template&lt;/font&gt;" style="text;html=1;strokeColor=none;fillColor=none;align=center;verticalAlign=middle;whiteSpace=wrap;rounded=0;strokeWidth=3;fontSize=14;fontStyle=1" vertex="1" parent="1">
                    <mxGeometry x="825" y="463.8400000000001" width="160" height="25" as="geometry"/>
                </mxCell>
                <mxCell id="138" value="&lt;font color=&quot;#000000&quot; style=&quot;font-size: 14px;&quot;&gt;veda-config&lt;br&gt;&lt;/font&gt;" style="text;html=1;strokeColor=none;fillColor=none;align=center;verticalAlign=middle;whiteSpace=wrap;rounded=0;strokeWidth=3;fontSize=14;" vertex="1" parent="1">
                    <mxGeometry x="825" y="501.3400000000001" width="160" height="15" as="geometry"/>
                </mxCell>
                <mxCell id="139" value="" style="rounded=1;whiteSpace=wrap;html=1;fillColor=none;strokeWidth=3;strokeColor=#000000;" vertex="1" parent="1">
                    <mxGeometry x="825" y="332.53000000000003" width="160" height="87.68" as="geometry"/>
                </mxCell>
                <mxCell id="140" value="&lt;font color=&quot;#000000&quot; style=&quot;font-size: 18px;&quot;&gt;Dashboard&lt;/font&gt;" style="text;html=1;strokeColor=none;fillColor=none;align=center;verticalAlign=middle;whiteSpace=wrap;rounded=0;strokeWidth=3;fontSize=14;fontStyle=1" vertex="1" parent="1">
                    <mxGeometry x="825" y="346.37000000000006" width="160" height="25" as="geometry"/>
                </mxCell>
                <mxCell id="141" value="&lt;font color=&quot;#000000&quot; style=&quot;font-size: 14px;&quot;&gt;veda-ui&lt;br&gt;&lt;/font&gt;" style="text;html=1;strokeColor=none;fillColor=none;align=center;verticalAlign=middle;whiteSpace=wrap;rounded=0;strokeWidth=3;fontSize=14;" vertex="1" parent="1">
                    <mxGeometry x="825" y="383.87000000000006" width="160" height="15" as="geometry"/>
                </mxCell>
                <mxCell id="142" value="" style="rounded=1;whiteSpace=wrap;html=1;fillColor=none;strokeWidth=3;strokeColor=#000000;" vertex="1" parent="1">
                    <mxGeometry x="825" y="572.5300000000001" width="160" height="87.68" as="geometry"/>
                </mxCell>
                <mxCell id="145" style="edgeStyle=none;html=1;exitX=0.5;exitY=1;exitDx=0;exitDy=0;fontSize=18;" edge="1" parent="1" source="143" target="142">
                    <mxGeometry relative="1" as="geometry"/>
                </mxCell>
                <mxCell id="143" value="&lt;font color=&quot;#000000&quot; style=&quot;font-size: 18px;&quot;&gt;Jupyterhub&lt;/font&gt;" style="text;html=1;strokeColor=none;fillColor=none;align=center;verticalAlign=middle;whiteSpace=wrap;rounded=0;strokeWidth=3;fontSize=14;fontStyle=1" vertex="1" parent="1">
                    <mxGeometry x="825" y="603.8700000000001" width="160" height="25" as="geometry"/>
                </mxCell>
                <mxCell id="146" value="`" style="group" vertex="1" connectable="0" parent="1">
                    <mxGeometry x="300" y="120" width="660" height="70" as="geometry"/>
                </mxCell>
                <mxCell id="147" value="" style="rounded=1;whiteSpace=wrap;html=1;fillColor=none;strokeWidth=3;strokeColor=#000000;" vertex="1" parent="146">
                    <mxGeometry width="420" height="70" as="geometry"/>
                </mxCell>
                <mxCell id="148" value="&lt;font color=&quot;#000000&quot; style=&quot;font-size: 18px;&quot;&gt;&lt;b&gt;Deployment Orchestration&lt;br&gt;&lt;/b&gt;veda-deploy&lt;br&gt;&lt;/font&gt;" style="text;html=1;strokeColor=none;fillColor=none;align=center;verticalAlign=middle;whiteSpace=wrap;rounded=0;strokeWidth=3;fontSize=14;" vertex="1" parent="146">
                    <mxGeometry x="50" y="17.5" width="330" height="35" as="geometry"/>
                </mxCell>
                <mxCell id="149" style="edgeStyle=none;html=1;exitX=1;exitY=0.5;exitDx=0;exitDy=0;fontSize=18;" edge="1" parent="146" source="147" target="147">
                    <mxGeometry relative="1" as="geometry"/>
                </mxCell>
                <mxCell id="150" value="" style="endArrow=classic;html=1;fontSize=18;exitX=1;exitY=0.5;exitDx=0;exitDy=0;entryX=0;entryY=0.5;entryDx=0;entryDy=0;strokeColor=#000000;strokeWidth=4;" edge="1" parent="1" source="104" target="112">
                    <mxGeometry width="50" height="50" relative="1" as="geometry">
                        <mxPoint x="210" y="460" as="sourcePoint"/>
                        <mxPoint x="260" y="410" as="targetPoint"/>
                    </mxGeometry>
                </mxCell>
                <mxCell id="151" value="" style="endArrow=classic;html=1;fontSize=18;entryX=0;entryY=0.5;entryDx=0;entryDy=0;strokeColor=#000000;strokeWidth=4;" edge="1" parent="1" target="102">
                    <mxGeometry width="50" height="50" relative="1" as="geometry">
                        <mxPoint x="430" y="460" as="sourcePoint"/>
                        <mxPoint x="280" y="480.21" as="targetPoint"/>
                    </mxGeometry>
                </mxCell>
                <mxCell id="152" value="" style="endArrow=classic;html=1;strokeColor=#000000;strokeWidth=4;fontSize=18;exitX=1;exitY=0.5;exitDx=0;exitDy=0;entryX=0;entryY=0.5;entryDx=0;entryDy=0;" edge="1" parent="1" source="102" target="131">
                    <mxGeometry width="50" height="50" relative="1" as="geometry">
                        <mxPoint x="720" y="530" as="sourcePoint"/>
                        <mxPoint x="770" y="480" as="targetPoint"/>
                    </mxGeometry>
                </mxCell>
                <mxCell id="153" value="" style="shape=flexArrow;endArrow=classic;startArrow=classic;html=1;strokeColor=#000000;strokeWidth=4;fontSize=18;entryX=0.5;entryY=1;entryDx=0;entryDy=0;exitX=0.138;exitY=-0.032;exitDx=0;exitDy=0;exitPerimeter=0;" edge="1" parent="1" source="47" target="112">
                    <mxGeometry width="100" height="100" relative="1" as="geometry">
                        <mxPoint x="310" y="670" as="sourcePoint"/>
                        <mxPoint x="410" y="570" as="targetPoint"/>
                    </mxGeometry>
                </mxCell>
                <mxCell id="154" value="" style="shape=flexArrow;endArrow=classic;startArrow=classic;html=1;strokeColor=#000000;strokeWidth=4;fontSize=18;entryX=0.5;entryY=1;entryDx=0;entryDy=0;exitX=0.469;exitY=-0.041;exitDx=0;exitDy=0;exitPerimeter=0;" edge="1" parent="1" source="47" target="102">
                    <mxGeometry width="100" height="100" relative="1" as="geometry">
                        <mxPoint x="580" y="790" as="sourcePoint"/>
                        <mxPoint x="680" y="690" as="targetPoint"/>
                    </mxGeometry>
                </mxCell>
                <mxCell id="156" value="" style="shape=flexArrow;endArrow=classic;startArrow=classic;html=1;strokeColor=#000000;strokeWidth=4;fontSize=18;entryX=0.5;entryY=1;entryDx=0;entryDy=0;" edge="1" parent="1" target="131">
                    <mxGeometry width="100" height="100" relative="1" as="geometry">
                        <mxPoint x="905" y="770" as="sourcePoint"/>
                        <mxPoint x="970" y="710" as="targetPoint"/>
                    </mxGeometry>
                </mxCell>
                <mxCell id="157" value="" style="shape=flexArrow;endArrow=classic;html=1;strokeColor=#000000;strokeWidth=4;fontSize=18;entryX=0.5;entryY=0;entryDx=0;entryDy=0;fillColor=default;" edge="1" parent="1" target="112">
                    <mxGeometry width="50" height="50" relative="1" as="geometry">
                        <mxPoint x="340" y="190" as="sourcePoint"/>
                        <mxPoint x="420" y="240" as="targetPoint"/>
                    </mxGeometry>
                </mxCell>
                <mxCell id="158" value="" style="shape=flexArrow;endArrow=classic;html=1;strokeColor=#000000;strokeWidth=4;fontSize=18;fillColor=default;" edge="1" parent="1">
                    <mxGeometry width="50" height="50" relative="1" as="geometry">
                        <mxPoint x="599.29" y="186.34" as="sourcePoint"/>
                        <mxPoint x="599" y="240" as="targetPoint"/>
                    </mxGeometry>
                </mxCell>
                <mxCell id="159" value="" style="shape=flexArrow;endArrow=classic;html=1;strokeColor=#000000;strokeWidth=4;fontSize=18;fillColor=default;entryX=0.286;entryY=-0.075;entryDx=0;entryDy=0;entryPerimeter=0;" edge="1" parent="1" target="47">
                    <mxGeometry width="50" height="50" relative="1" as="geometry">
                        <mxPoint x="460" y="190" as="sourcePoint"/>
                        <mxPoint x="460" y="760" as="targetPoint"/>
                    </mxGeometry>
                </mxCell>
                <mxCell id="162" value="" style="rounded=1;whiteSpace=wrap;html=1;dashed=1;strokeColor=#000000;strokeWidth=4;fontSize=16;fillColor=none;" vertex="1" parent="1">
                    <mxGeometry x="200" y="-20" width="860" height="950" as="geometry"/>
                </mxCell>
                <mxCell id="165" value="&lt;font style=&quot;font-size: 48px;&quot; color=&quot;#000000&quot;&gt;VEDA Open Source Ecosystem&lt;/font&gt;" style="text;html=1;strokeColor=none;fillColor=none;align=center;verticalAlign=middle;whiteSpace=wrap;rounded=0;dashed=1;strokeWidth=4;fontSize=16;" vertex="1" parent="1">
                    <mxGeometry x="245" y="30" width="770" height="30" as="geometry"/>
                </mxCell>
            </root>
        </mxGraphModel>
    </diagram>
</mxfile>